<svg xmlns="http://www.w3.org/2000/svg" viewBox="0 0 785.37 321.43"><title>Asset 1</title><g id="Layer_2" data-name="Layer 2" fill="#fff"><g id="Layer_4" data-name="Layer 4"><path d="M123.65,81.45H217.3v4.31c0,41.23-.07,82.45.09,123.68,0,4.85,1.25,9.7,2,14.54a10.36,10.36,0,0,0,7.17,8.75c6.19,1.93,12.41,1.43,16.33-4.57a28.41,28.41,0,0,0,3.61-10.09,61.82,61.82,0,0,0,.81-11.63q.07-60.23,0-120.46V81.53H341v4.31c0,46.71.09,93.42-.07,140.12A94.78,94.78,0,0,1,335.6,258c-4.1,11.37-9.86,21.7-18.36,30.29-5.85,5.91-11.62,12.19-18.47,16.73-7.2,4.78-15.5,8-23.56,11.33-9.54,3.92-19.88,4.15-30,5-5.07.41-10.3-.65-15.42-1.33a88.28,88.28,0,0,1-27.87-8.75c-9.76-4.87-18.93-10.76-26.72-18.57a59.19,59.19,0,0,0-4.92-4c-5,4-10,8.23-15.25,12-10.81,7.67-22.42,13.87-35.35,17.13a106.79,106.79,0,0,1-16.16,2.85A101.71,101.71,0,0,1,62,315.82a86.29,86.29,0,0,1-39.76-26.9c-9.92-11.75-15.84-25.58-18.83-40.76A150.3,150.3,0,0,1,.68,219.79Q.35,151.24,0,82.67A6.2,6.2,0,0,1,.27,81.5H93.62v4.09c0,39.91-.12,79.83.11,119.74a103.67,103.67,0,0,0,2.62,20.49c1.11,5.24,7.31,8.5,12.71,7.9,10-1.11,12.66-7.18,13.63-15.93,1.26-11.4.9-23,.93-34.5.09-32.41,0-64.82,0-97.23Z"/><path d="M528.29,321.24v-4.51q0-98.82,0-197.64a111.61,111.61,0,0,1,27.76-75.25c10.41-12,23-21.24,36.82-29A120,120,0,0,1,634.33.79C643-.48,652,.55,661.06.55V90.91c-3.66.36-7.37.7-11.07,1.1-12.34,1.33-20.69,8.07-25.47,19.26-3.95,9.27-4.27,19.1-3.92,29.26H661v91.56H620.6v89.15Z"/><path d="M692.16,321.24V0h93.21V321.24Z"/><path d="M501.75,82.12V173c-11.48-.42-22.24,1.56-30.46,10.16a32.57,32.57,0,0,0-8.7,18.36,149.3,149.3,0,0,0-1.44,19c-.14,32-.07,64.09-.07,96.14v4.57H369c0-1-.16-2.18-.16-3.33,0-40.74-.34-81.49.18-122.22A105.75,105.75,0,0,1,378,155.22a114.53,114.53,0,0,1,29.1-40.17,124.89,124.89,0,0,1,42.64-25.74c8.53-3,17.33-5.69,26.24-6.94C484.3,81.2,492.93,82.12,501.75,82.12Z"/><path d="M4.55,10.59a17.57,17.57,0,0,1,5-5.47,22.18,22.18,0,0,1,6.88-3.27A27.88,27.88,0,0,1,24.12.75a24.68,24.68,0,0,1,10,1.82A20.88,20.88,0,0,1,40.74,7a15.85,15.85,0,0,1,3.59,5.55,15.6,15.6,0,0,1,1.1,5.33,14.79,14.79,0,0,1-2.33,8.28,12.75,12.75,0,0,1-7,5.1v.18A14.5,14.5,0,0,1,45,36.85,16.49,16.49,0,0,1,48.07,47a18.14,18.14,0,0,1-2,8.83A18.69,18.69,0,0,1,40.6,62,24.12,24.12,0,0,1,33,65.7a31.42,31.42,0,0,1-8.73,1.23,35,35,0,0,1-9-1.14A23.09,23.09,0,0,1,7.51,62.2,18.59,18.59,0,0,1,2.05,56a18.23,18.23,0,0,1-2-8.92,16.29,16.29,0,0,1,3.14-10.2A15.19,15.19,0,0,1,12,31.43v-.18a11.81,11.81,0,0,1-7-4.83,14.53,14.53,0,0,1-2.37-8.28A14.73,14.73,0,0,1,4.55,10.59Zm9.29,40.32a10.53,10.53,0,0,0,2.41,3.41,10.24,10.24,0,0,0,3.6,2.19,12.38,12.38,0,0,0,4.37.77,11.61,11.61,0,0,0,4.32-.77A10.6,10.6,0,0,0,32,54.32a9.61,9.61,0,0,0,2.32-3.41,11.34,11.34,0,0,0,.82-4.37,9.83,9.83,0,0,0-.86-4.14,10.12,10.12,0,0,0-2.37-3.23,10.51,10.51,0,0,0-3.46-2.09,12,12,0,0,0-4.23-.73,12.53,12.53,0,0,0-8,2.59,9,9,0,0,0-3.27,7.51A10.58,10.58,0,0,0,13.84,50.91ZM17.3,25.56a11.17,11.17,0,0,0,6.82,2.14A10.7,10.7,0,0,0,31,25.56a7.46,7.46,0,0,0,2.73-6.24,11.91,11.91,0,0,0-.36-2.77,7.76,7.76,0,0,0-1.41-2.87A7.92,7.92,0,0,0,29,11.41a11.07,11.07,0,0,0-4.87-.92,11.4,11.4,0,0,0-3.68.6,9.87,9.87,0,0,0-3.14,1.68,7.57,7.57,0,0,0-2.14,2.73,8.8,8.8,0,0,0-.78,3.82A7.25,7.25,0,0,0,17.3,25.56Z"/><path d="M55.17,10.59a17.33,17.33,0,0,1,5-5.47A22,22,0,0,1,67,1.85,28,28,0,0,1,74.74.75a24.66,24.66,0,0,1,10,1.82A20.88,20.88,0,0,1,91.35,7,16,16,0,0,1,95,12.54,15.81,15.81,0,0,1,96,17.87a14.78,14.78,0,0,1-2.32,8.28,12.81,12.81,0,0,1-7,5.1v.18a14.47,14.47,0,0,1,8.83,5.42A16.49,16.49,0,0,1,98.68,47a18.14,18.14,0,0,1-2.05,8.83A18.58,18.58,0,0,1,91.21,62a24.07,24.07,0,0,1-7.64,3.68,31.54,31.54,0,0,1-8.74,1.23,35,35,0,0,1-9-1.14,23.09,23.09,0,0,1-7.74-3.59A18.59,18.59,0,0,1,52.66,56a18.34,18.34,0,0,1-2-8.92,16.29,16.29,0,0,1,3.14-10.2,15.19,15.19,0,0,1,8.88-5.46v-.18a11.81,11.81,0,0,1-7-4.83,14.53,14.53,0,0,1-2.37-8.28A14.64,14.64,0,0,1,55.17,10.59Zm9.28,40.32a10.68,10.68,0,0,0,2.41,3.41,10.24,10.24,0,0,0,3.6,2.19,12.38,12.38,0,0,0,4.37.77,11.57,11.57,0,0,0,4.32-.77,10.5,10.5,0,0,0,3.46-2.19,9.61,9.61,0,0,0,2.32-3.41,11.34,11.34,0,0,0,.82-4.37,9.83,9.83,0,0,0-.86-4.14,10.12,10.12,0,0,0-2.37-3.23,10.51,10.51,0,0,0-3.46-2.09,12,12,0,0,0-4.23-.73,12.48,12.48,0,0,0-8,2.59,9,9,0,0,0-3.28,7.51A10.58,10.58,0,0,0,64.45,50.91Zm3.46-25.35a11.2,11.2,0,0,0,6.83,2.14,10.69,10.69,0,0,0,6.82-2.14,7.43,7.43,0,0,0,2.73-6.24,11.91,11.91,0,0,0-.36-2.77,7.61,7.61,0,0,0-1.41-2.87,8,8,0,0,0-2.91-2.27,11.13,11.13,0,0,0-4.87-.92,11.42,11.42,0,0,0-3.69.6,10,10,0,0,0-3.14,1.68,7.68,7.68,0,0,0-2.14,2.73A8.8,8.8,0,0,0,65,19.32,7.27,7.27,0,0,0,67.91,25.56Z"/><path d="M119.7,51.73v14H105.41v-14Z"/><path d="M148,65.75V24.42H132V14.68a30.26,30.26,0,0,0,6.51-.5,16.9,16.9,0,0,0,5.65-2.09,13.88,13.88,0,0,0,4.23-4A14.05,14.05,0,0,0,150.65,2h10.29V65.75Z"/><path d="M253.15.75v12h-31.4v15H249V38.9H221.75V65.75H207.46V.75Z"/><path d="M281.55.75l15.21,44.7h.18L311.32.75h20.12v65H318.06V19.69h-.18L302,65.75h-11L275,20.14h-.18V65.75H261.44V.75Z"/></g></g></svg>
